<?xml version="1.0" standalone="no"?>
<!DOCTYPE svg PUBLIC "-//W3C//DTD SVG 20010904//EN"
 "http://www.w3.org/TR/2001/REC-SVG-20010904/DTD/svg10.dtd">
<svg version="1.0" xmlns="http://www.w3.org/2000/svg"
 width="155.000000pt" height="155.000000pt" viewBox="0 0 155.000000 155.000000"
 preserveAspectRatio="xMidYMid meet">
<metadata>
Created by potrace 1.14, written by Peter Selinger 2001-2017
</metadata>
<g transform="translate(0.000000,155.000000) scale(0.100000,-0.100000)"
fill="#000000" stroke="none">
<path d="M675 1069 c-82 -72 -160 -141 -205 -179 -14 -12 -39 -34 -55 -48 -17
-15 -61 -54 -100 -87 -38 -33 -77 -67 -87 -75 -9 -8 -62 -53 -117 -100 -55
-47 -102 -92 -106 -101 -9 -25 5 -49 27 -49 16 0 152 108 234 185 6 5 39 35
74 65 35 30 85 73 110 95 25 22 75 65 110 95 35 30 68 60 74 65 51 47 135 115
142 115 5 0 27 -17 49 -36 69 -62 98 -87 170 -149 38 -33 75 -64 81 -70 6 -5
37 -32 69 -60 32 -27 66 -57 75 -65 9 -8 47 -42 85 -75 39 -33 72 -62 75 -65
3 -3 31 -27 62 -54 59 -49 83 -54 102 -23 9 15 1 28 -60 85 l-70 67 2 215 c1
118 0 222 -2 230 -3 13 -40 15 -270 15 l-265 0 -46 37 c-25 21 -53 38 -62 37
-9 0 -52 -32 -96 -70z"/>
<path d="M582 728 l3 -83 80 0 80 0 0 80 0 80 -83 3 -83 3 3 -83z"/>
<path d="M802 728 l3 -83 80 0 80 0 3 83 3 82 -86 0 -86 0 3 -82z"/>
<path d="M597 592 c-14 -3 -17 -17 -17 -82 0 -53 4 -79 13 -82 6 -2 44 -3 82
-3 l70 0 3 74 c2 41 -1 78 -6 83 -10 10 -112 16 -145 10z"/>
<path d="M823 592 c-22 -3 -23 -8 -23 -82 0 -53 4 -79 13 -82 6 -2 44 -3 82
-3 l70 0 3 83 c2 45 -1 82 -5 83 -28 3 -122 3 -140 1z"/>
</g>
</svg>
